<?xml version="1.0" encoding="utf-8"?>
<!-- Generator: Adobe Illustrator 19.1.0, SVG Export Plug-In . SVG Version: 6.00 Build 0)  -->
<svg version="1.1" id="Layer_1" xmlns="http://www.w3.org/2000/svg" xmlns:xlink="http://www.w3.org/1999/xlink" x="0px" y="0px"
	 viewBox="0 0 800 723" style="enable-background:new 0 0 800 723;" xml:space="preserve">
<style type="text/css">
	.st0{fill:#231F20;}
</style>
<polygon class="st0" points="40.2,7.9 201.2,209.7 236,209.7 166.4,121 236,7.9 204.5,7.9 149,99.3 77.2,7.9 "/>
<path class="st0" d="M342.7,7.9c-55.7,0-100.9,45.2-100.9,100.9c0,55.7,45.2,100.9,100.9,100.9c55.7,0,100.9-45.2,100.9-100.9
	C443.6,53.1,398.4,7.9,342.7,7.9z M342.7,183.1c-41,0-74.3-33.2-74.3-74.3c0-41,33.2-74.3,74.3-74.3c41,0,74.3,33.2,74.3,74.3
	C416.9,149.8,383.7,183.1,342.7,183.1z"/>
<path class="st0" d="M477,7.9v103.4c0,0,0.8,98.5,94.1,98.5c89.5,0,89.8-98.5,89.8-98.5V7.9h-28.8v103.4c0,0,3.3,71.3-62,71.3
	c-66.1,0-65.3-71.3-65.3-71.3V7.9H477z"/>
<path class="st0" d="M129.4,256.5h-25.6L5.9,458.3h32.6l14.7-36.4h121.3l15.2,36.4h32.1L129.4,256.5z M64.7,395.8L114.2,294
	l49,101.7H64.7z"/>
<path class="st0" d="M372,387.6c0,0,35.4-14.2,35.4-64.2s-47.9-66.9-47.9-66.9H258.4v201.8h28.3v-65.8h56l47.9,65.8h37.5L372,387.6z
	 M350.8,364.8h-64.2v-81.1H347c0,0,32.1,12.5,32.1,38.6C379.1,348.4,350.8,364.8,350.8,364.8z"/>
<path class="st0" d="M576.6,641.6c0,0,35.4-14.2,35.4-64.2c0-50-47.9-66.9-47.9-66.9H462.9v201.8h28.3v-65.8h56l47.9,65.8h37.5
	L576.6,641.6z M555.4,618.8h-64.2v-81.1h60.4c0,0,32.1,12.5,32.1,38.6S555.4,618.8,555.4,618.8z"/>
<polygon class="st0" points="458,256.5 458,458.3 586.4,458.3 586.4,431.1 488.5,431.1 488.5,372.4 586.4,372.4 586.4,347.3 
	488.5,347.3 488.5,282.6 586.4,282.6 586.4,256.5 "/>
<polygon class="st0" points="291.5,510.5 291.5,712.4 419.9,712.4 419.9,685.2 322,685.2 322,626.4 419.9,626.4 419.9,601.4 
	322,601.4 322,536.7 419.9,536.7 419.9,510.5 "/>
<polygon class="st0" points="663.6,510.5 663.6,712.4 792,712.4 792,685.2 694.1,685.2 694.1,626.4 792,626.4 792,601.4 
	694.1,601.4 694.1,536.7 792,536.7 792,510.5 "/>
<polygon class="st0" points="73.9,510.5 73.9,712.4 102.8,712.4 102.8,626.4 214.3,626.4 214.3,712.4 243.1,712.4 243.1,510.5 
	214.3,510.5 214.3,600.8 102.8,600.8 102.8,510.5 "/>
</svg>
